<svg width="68" height="68" viewBox="0 0 68 68" fill="none" xmlns="http://www.w3.org/2000/svg">
<rect width="68" height="68" rx="34" fill="#19191F"/>
<rect width="68" height="68" rx="34" stroke="white"/>
<path d="M22 29.5V32.5L46 32.5V29.5L22 29.5ZM49 32.5C49 34.1569 47.6569 35.5 46 35.5L22 35.5C20.3431 35.5 19 34.1569 19 32.5V29.5C19 27.8431 20.3431 26.5 22 26.5L46 26.5C47.6569 26.5 49 27.8431 49 29.5V32.5Z" fill="#A5D4FE"/>
<path d="M32.5 47.5L32.5 28C32.5 27.1716 33.1716 26.5 34 26.5C34.8284 26.5 35.5 27.1716 35.5 28L35.5 47.5C35.5 48.3284 34.8284 49 34 49C33.1716 49 32.5 48.3284 32.5 47.5Z" fill="#A5D4FE"/>
<path d="M22 44.5L22 34C22 33.1716 22.6716 32.5 23.5 32.5C24.3284 32.5 25 33.1716 25 34L25 44.5L25.0073 44.6479C25.0414 44.9914 25.1932 45.3144 25.4395 45.5605C25.7208 45.8419 26.1022 46 26.5 46L41.5 46C41.8978 46 42.2793 45.8419 42.5605 45.5605C42.8419 45.2793 43 44.8978 43 44.5V34C43 33.1716 43.6716 32.5 44.5 32.5C45.3284 32.5 46 33.1716 46 34V44.5C46 45.6936 45.5255 46.8377 44.6816 47.6816C43.8377 48.5255 42.6936 49 41.5 49H26.5C25.3065 49 24.1623 48.5255 23.3184 47.6816C22.5801 46.9433 22.1244 45.9752 22.022 44.9453L22 44.5Z" fill="#A5D4FE"/>
<path d="M43 24.2494C42.9998 23.6529 42.7625 23.0804 42.3407 22.6586C41.9717 22.2896 41.4875 22.0623 40.9726 22.0111L40.75 21.9994C40.7413 21.9994 40.7323 21.9995 40.7236 21.9994C39.8137 21.9836 38.7854 22.4184 37.7955 23.5184C36.7978 24.6271 35.9573 26.2942 35.4576 28.3539C35.2942 29.0265 34.6921 29.4994 34 29.4994C33.3079 29.4994 32.7058 29.0265 32.5424 28.3539C32.0427 26.2942 31.2022 24.6271 30.2046 23.5184C29.338 22.5556 28.4421 22.1029 27.6221 22.0155L27.2764 21.9994C27.2677 21.9995 27.2587 21.9994 27.25 21.9994C26.6534 21.9994 26.0811 22.2368 25.6592 22.6586C25.2374 23.0804 25.0002 23.6529 25 24.2494L25.0117 24.472C25.0628 24.9872 25.2899 25.4724 25.6592 25.8417C26.0283 26.2106 26.5126 26.438 27.0273 26.4891L27.25 26.4994L27.4038 26.5082C28.1597 26.5852 28.7497 27.2232 28.75 27.9994C28.75 28.7759 28.16 29.415 27.4038 29.4921L27.25 29.4994L26.9893 29.4935C25.692 29.4291 24.461 28.8855 23.5381 27.9628C22.615 27.0397 22.0702 25.8078 22.0059 24.5101L22 24.2494C22.0002 22.8572 22.5537 21.5219 23.5381 20.5375C24.5226 19.5531 25.8578 18.9994 27.25 18.9994V19.0023C29.2238 18.9767 31.0224 19.943 32.4342 21.5116C33.025 22.1682 33.5478 22.9286 34 23.7675C34.4522 22.9286 34.975 22.1682 35.5658 21.5116C36.9776 19.943 38.7761 18.9767 40.75 19.0023V18.9994C42.1423 18.9994 43.4774 19.5531 44.4619 20.5375C45.4464 21.5219 45.9998 22.8572 46 24.2494C46 25.6418 45.4465 26.9782 44.4619 27.9628C43.4774 28.9471 42.1422 29.4994 40.75 29.4994C39.9216 29.4994 39.25 28.8278 39.25 27.9994C39.2503 27.1713 39.9219 26.4994 40.75 26.4994C41.3465 26.4994 41.9189 26.2634 42.3407 25.8417C42.7628 25.4197 43 24.8461 43 24.2494Z" fill="#A5D4FE"/>
</svg>
