<svg width="68" height="68" viewBox="0 0 68 68" fill="none" xmlns="http://www.w3.org/2000/svg">
<rect width="68" height="68" rx="34" fill="#19191F"/>
<rect width="68" height="68" rx="34" stroke="white"/>
<path d="M37 47.5V35.5H31L31 47.5C31 48.3285 30.3284 49 29.5 49C28.6716 49 28 48.3285 28 47.5L28 35.5C28 34.7044 28.3163 33.9415 28.8789 33.3789C29.4415 32.8164 30.2044 32.5 31 32.5H37C37.7956 32.5 38.5585 32.8164 39.1211 33.3789C39.6836 33.9415 40 34.7044 40 35.5V47.5C40 48.3285 39.3285 49 38.5 49C37.6715 49 37 48.3285 37 47.5Z" fill="#A5D4FE"/>
<path d="M46 30.9994L45.9911 30.8368C45.9736 30.6749 45.9296 30.5165 45.8608 30.368C45.769 30.1701 45.6349 29.9947 45.4683 29.8539L45.4609 29.8466L34.9683 20.8539C34.7312 20.6536 34.4389 20.5338 34.1319 20.5067L34 20.5009C33.6455 20.5009 33.3025 20.6265 33.0317 20.8553L33.0303 20.8539L22.5391 29.8466L22.5317 29.8539C22.3651 29.9947 22.231 30.1701 22.1392 30.368C22.0474 30.5658 22 30.7813 22 30.9994L22 44.4994C22 44.8972 22.1581 45.28 22.4395 45.5614C22.7207 45.8425 23.1024 45.9994 23.5 45.9994L44.5 45.9994C44.8976 45.9994 45.2793 45.8425 45.5605 45.5614C45.8419 45.28 46 44.8972 46 44.4994L46 30.9994ZM49 44.4994C49 45.6928 48.5255 46.8385 47.6816 47.6824C46.8377 48.5262 45.6933 48.9994 44.5 48.9994L23.5 48.9994C22.3067 48.9994 21.1622 48.5262 20.3184 47.6824C19.4745 46.8385 19 45.6928 19 44.4994L19 30.9994C19 30.3452 19.1422 29.6987 19.4175 29.1053C19.693 28.5116 20.0954 27.9854 20.5952 27.5629L31.0879 18.5702L31.0953 18.5643L31.4101 18.3212C32.1657 17.7894 33.0697 17.5009 34 17.5009L34.3969 17.5184C35.1857 17.5883 35.9422 17.8654 36.5899 18.3212L36.9047 18.5643L36.9121 18.5702L47.4048 27.5629L47.5879 27.7255C48.0034 28.1174 48.3415 28.5858 48.5826 29.1053C48.8578 29.6987 49 30.3452 49 30.9994L49 44.4994Z" fill="#A5D4FE"/>
</svg>
