<svg width="68" height="68" viewBox="0 0 68 68" fill="none" xmlns="http://www.w3.org/2000/svg">
<rect width="68" height="68" rx="34" fill="#19191F"/>
<rect width="68" height="68" rx="34" stroke="white"/>
<path d="M46 25.498L42.2515 20.5L25.7485 20.5L22 25.498L22 46C22 46.3978 22.1581 46.7793 22.4395 47.0605C22.7208 47.3419 23.1022 47.5 23.5 47.5L44.5 47.5C44.8978 47.5 45.2793 47.3419 45.5605 47.0605C45.8419 46.7793 46 46.3978 46 46L46 25.498ZM49 46C49 47.1936 48.5255 48.3377 47.6816 49.1816C46.8377 50.0256 45.6936 50.5 44.5 50.5L23.5 50.5C22.3065 50.5 21.1623 50.0256 20.3184 49.1816C19.4745 48.3377 19 47.1934 19 46L19 25C19 24.6755 19.1057 24.3602 19.3003 24.1006L23.8003 18.1006L23.9131 17.9658C24.1944 17.6701 24.5868 17.5 25 17.5L43 17.5C43.4722 17.5 43.9165 17.7229 44.1997 18.1006L48.6997 24.1006C48.8944 24.3602 49 24.6755 49 25L49 46Z" fill="#A5D4FE"/>
<path d="M47.5 23.5C48.3284 23.5 49 24.1716 49 25C49 25.8284 48.3284 26.5 47.5 26.5L20.5 26.5C19.6716 26.5 19 25.8284 19 25C19 24.1716 19.6716 23.5 20.5 23.5L47.5 23.5Z" fill="#A5D4FE"/>
<path d="M26.5 31C26.5 30.1716 27.1716 29.5 28 29.5C28.8284 29.5 29.5 30.1716 29.5 31C29.5 32.1934 29.9745 33.3378 30.8184 34.1817C31.6623 35.0256 32.8066 35.5 34 35.5L34.4453 35.4781C35.4752 35.3757 36.4434 34.92 37.1817 34.1817C38.0256 33.3378 38.5 32.1934 38.5 31C38.5 30.1716 39.1715 29.5 40 29.5C40.8285 29.5 41.5 30.1716 41.5 31C41.5 32.9892 40.7092 34.8963 39.3028 36.3028C37.9841 37.6213 36.2257 38.3992 34.372 38.4911L34 38.5C32.0108 38.5 30.1038 37.7092 28.6973 36.3028C27.2907 34.8963 26.5 32.9892 26.5 31Z" fill="#A5D4FE"/>
</svg>
