<svg width="68" height="68" viewBox="0 0 68 68" fill="none" xmlns="http://www.w3.org/2000/svg">
<rect width="68" height="68" rx="34" fill="#19191F"/>
<rect width="68" height="68" rx="34" stroke="white"/>
<path d="M43 35.5C42.6022 35.5 42.2207 35.6581 41.9395 35.9395C41.6581 36.2208 41.5 36.6022 41.5 37L41.5074 37.1479C41.5414 37.4914 41.6932 37.8144 41.9395 38.0605C42.2207 38.3419 42.6022 38.5 43 38.5H47.5V35.5H43ZM23.5 22C23.1022 22 22.7208 22.1581 22.4395 22.4395C22.1581 22.7208 22 23.1022 22 23.5L22.0073 23.6479C22.0414 23.9914 22.1932 24.3143 22.4395 24.5605C22.7208 24.8419 23.1022 25 23.5 25L43 25V22L23.5 22ZM46 25C46.7956 25 47.5585 25.3163 48.1212 25.8789C48.6837 26.4415 49 27.2044 49 28V32.9042C49.2247 33.0342 49.4344 33.1923 49.6212 33.3789C50.1837 33.9415 50.5 34.7044 50.5 35.5V38.5C50.5 39.2956 50.1837 40.0585 49.6212 40.6212C49.0585 41.1837 48.2956 41.5 47.5 41.5H43C41.8064 41.5 40.6622 41.0255 39.8183 40.1816C39.08 39.4433 38.6243 38.4753 38.5219 37.4454L38.5 37C38.5 35.8064 38.9744 34.6622 39.8183 33.8183C40.6622 32.9744 41.8064 32.5 43 32.5H46V28L23.5 28C22.3065 28 21.1623 27.5255 20.3184 26.6816C19.5801 25.9433 19.1244 24.9753 19.022 23.9453L19 23.5C19 22.3065 19.4745 21.1623 20.3184 20.3184C21.1623 19.4745 22.3065 19 23.5 19L43 19L43.2959 19.0147C43.983 19.0827 44.6287 19.3865 45.1212 19.8789C45.6837 20.4415 46 21.2044 46 22V25Z" fill="#A5D4FE"/>
<path d="M19 44.5L19 23.5C19 22.6716 19.6716 22 20.5 22C21.3284 22 22 22.6716 22 23.5L22 44.5C22 44.8978 22.1581 45.2793 22.4395 45.5605C22.7208 45.8419 23.1022 46 23.5 46L46 46L46 40C46 39.1716 46.6716 38.5 47.5 38.5C48.3284 38.5 49 39.1716 49 40L49 46C49 46.7956 48.6837 47.5585 48.1212 48.1212C47.5585 48.6837 46.7956 49 46 49L23.5 49C22.3065 49 21.1623 48.5255 20.3184 47.6816C19.4745 46.8377 19 45.6934 19 44.5Z" fill="#A5D4FE"/>
</svg>
