<svg width="68" height="68" viewBox="0 0 68 68" fill="none" xmlns="http://www.w3.org/2000/svg">
<rect width="68" height="68" rx="34" fill="#19191F"/>
<rect width="68" height="68" rx="34" stroke="white"/>
<path d="M31.4354 17.6856C34.9308 17.1349 38.504 17.724 41.6307 19.354L42.2489 19.6939L42.3779 19.7759C42.995 20.2202 43.1876 21.0689 42.7997 21.7417C42.4115 22.4146 41.5802 22.6731 40.8866 22.3614L40.7504 22.2911L40.2435 22.0142C37.6856 20.6807 34.7624 20.1985 31.9028 20.649C28.8525 21.1295 26.0587 22.6415 23.9882 24.9322C21.9176 27.223 20.6947 30.1547 20.5238 33.2378C20.353 36.321 21.2444 39.3705 23.0492 41.876C24.854 44.3814 27.4639 46.1928 30.4423 47.0073C33.4206 47.8218 36.5888 47.5908 39.4173 46.3526C42.2462 45.1143 44.5652 42.9428 45.9872 40.2017C47.3202 37.632 47.7894 34.7066 47.3348 31.8579L47.2308 31.2896L47.2089 31.1373C47.1333 30.3811 47.6406 29.6753 48.4013 29.5201C49.1625 29.365 49.9067 29.8164 50.1327 30.5425L50.1708 30.6905L50.2968 31.3848C50.8524 34.8669 50.2784 38.4422 48.6488 41.583C46.9107 44.9331 44.0774 47.5872 40.62 49.1006C37.163 50.6139 33.2915 50.8958 29.6512 49.9004C26.0109 48.9048 22.8205 46.6917 20.6146 43.6295C18.4088 40.5671 17.3195 36.8406 17.5282 33.0723C17.737 29.304 19.2323 25.7209 21.7631 22.9209C24.2938 20.1212 27.7074 18.2729 31.4354 17.6856Z" fill="#A5D4FE"/>
<path d="M48.0534 20.8369C48.6425 20.3564 49.511 20.3903 50.0601 20.9395C50.6094 21.4887 50.6433 22.3571 50.1627 22.9463L50.0601 23.0606L35.0601 38.0605C34.511 38.6097 33.6425 38.6436 33.0534 38.1631L32.9391 38.0605L28.4391 33.5605L28.3366 33.4464C27.856 32.8572 27.8899 31.9887 28.4391 31.4395C28.9883 30.8903 29.8568 30.8564 30.4459 31.3369L30.5602 31.4395L33.9996 34.8789L47.9391 20.9395L48.0534 20.8369Z" fill="#A5D4FE"/>
</svg>
