<svg width="68" height="68" viewBox="0 0 68 68" fill="none" xmlns="http://www.w3.org/2000/svg">
<rect width="68" height="68" rx="34" fill="#19191F"/>
<rect width="68" height="68" rx="34" stroke="white"/>
<path d="M17.5 32.7578L17.5 22C17.5 20.8065 17.9744 19.6623 18.8184 18.8184C19.6623 17.9744 20.8065 17.5 22 17.5L32.7578 17.5L33.2032 17.522C34.2331 17.6245 35.2012 18.08 35.9395 18.8184L48.9985 31.8775L49.1728 32.062C50.0203 33.0034 50.4926 34.2274 50.4926 35.5L50.4868 35.7533C50.4244 37.0186 49.8955 38.2198 48.9985 39.1225L39.1225 48.9985C38.2198 49.8955 37.0186 50.4244 35.7533 50.4868L35.5 50.4926C34.1427 50.4926 32.8402 49.9552 31.8775 48.9985L18.8184 35.9395C18.08 35.2012 17.6245 34.2331 17.522 33.2032L17.5 32.7578ZM20.5 32.7578L20.5073 32.9058C20.5415 33.2491 20.6933 33.5722 20.9395 33.8183L33.9926 46.8717L34.1494 47.0122C34.5294 47.3215 35.0058 47.4926 35.5 47.4926L35.7109 47.4825C36.1982 47.4342 36.6568 47.2197 37.0074 46.8717L46.8745 37.0044C47.2208 36.6543 47.4343 36.1969 47.4825 35.7109L47.4926 35.5C47.4926 34.9366 47.2707 34.396 46.8745 33.9956L33.8183 20.9395C33.5722 20.6933 33.2491 20.5415 32.9058 20.5073L32.7578 20.5L22 20.5C21.6022 20.5 21.2208 20.6581 20.9395 20.9395C20.6581 21.2208 20.5 21.6022 20.5 22L20.5 32.7578Z" fill="#A5D4FE"/>
<path d="M27.25 28C27.6642 28 28 27.6642 28 27.25C28 26.8358 27.6642 26.5 27.25 26.5C26.8358 26.5 26.5 26.8358 26.5 27.25C26.5 27.6642 26.8358 28 27.25 28Z" fill="#A5D4FE"/>
<path d="M27.25 26.5C26.8358 26.5 26.5 26.8358 26.5 27.25C26.5 27.6642 26.8358 28 27.25 28C27.6642 28 28 27.6642 28 27.25C28 26.8358 27.6642 26.5 27.25 26.5ZM29.5 27.25C29.5 28.4926 28.4926 29.5 27.25 29.5C26.0074 29.5 25 28.4926 25 27.25C25 26.0074 26.0074 25 27.25 25C28.4926 25 29.5 26.0074 29.5 27.25Z" fill="#A5D4FE"/>
</svg>
