<svg width="68" height="68" viewBox="0 0 68 68" fill="none" xmlns="http://www.w3.org/2000/svg">
<rect width="68" height="68" rx="34" fill="#19191F"/>
<rect width="68" height="68" rx="34" stroke="white"/>
<path d="M35.5 43L35.5 25C35.5 24.6022 35.3419 24.2208 35.0605 23.9395C34.8144 23.6932 34.4914 23.5414 34.1479 23.5073L34 23.5L22 23.5C21.6022 23.5 21.2208 23.6581 20.9395 23.9395C20.6581 24.2208 20.5 24.6022 20.5 25L20.5 41.5H23.5C24.3284 41.5 25 42.1716 25 43C25 43.8284 24.3284 44.5 23.5 44.5H20.5C19.7044 44.5 18.9415 44.1837 18.3789 43.6212C17.8865 43.1287 17.5827 42.483 17.5147 41.7959L17.5 41.5L17.5 25C17.5 23.8065 17.9744 22.6623 18.8184 21.8184C19.6623 20.9745 20.8065 20.5 22 20.5L34 20.5L34.4454 20.522C35.4753 20.6244 36.4433 21.0801 37.1817 21.8184C38.0256 22.6623 38.5 23.8065 38.5 25L38.5 43C38.5 43.8284 37.8284 44.5 37 44.5C36.1716 44.5 35.5 43.8284 35.5 43Z" fill="#A5D4FE"/>
<path d="M38.5 41.5C39.3285 41.5 40 42.1716 40 43C40 43.8284 39.3285 44.5 38.5 44.5H29.5C28.6716 44.5 28 43.8284 28 43C28 42.1716 28.6716 41.5 29.5 41.5H38.5Z" fill="#A5D4FE"/>
<path d="M47.5 41.5V36.0274L47.4985 36.0259L42.2793 29.5015L42.2779 29.5H37C36.1716 29.5 35.5 28.8284 35.5 28C35.5 27.1716 36.1716 26.5 37 26.5H42.2822L42.6177 26.5191C42.951 26.557 43.2764 26.651 43.58 26.7974C43.9847 26.9924 44.3396 27.277 44.6201 27.6279L44.6217 27.6265L49.8394 34.1509L49.9903 34.3559C50.3202 34.8474 50.499 35.4274 50.5 36.0229V41.5C50.5 42.2956 50.1837 43.0585 49.6212 43.6212C49.0585 44.1837 48.2956 44.5 47.5 44.5H44.5C43.6715 44.5 43 43.8284 43 43C43 42.1715 43.6715 41.5 44.5 41.5H47.5Z" fill="#A5D4FE"/>
<path d="M43 43C43 42.1716 42.3285 41.5 41.5 41.5C40.6716 41.5 40 42.1716 40 43C40 43.8285 40.6716 44.5 41.5 44.5C42.3285 44.5 43 43.8285 43 43ZM46 43C46 45.4854 43.9854 47.5 41.5 47.5C39.0146 47.5 37 45.4854 37 43C37 40.5146 39.0146 38.5 41.5 38.5C43.9854 38.5 46 40.5146 46 43Z" fill="#A5D4FE"/>
<path d="M28 43C28 42.1716 27.3284 41.5 26.5 41.5C25.6716 41.5 25 42.1716 25 43C25 43.8285 25.6716 44.5 26.5 44.5C27.3284 44.5 28 43.8285 28 43ZM31 43C31 45.4854 28.9853 47.5 26.5 47.5C24.0147 47.5 22 45.4854 22 43C22 40.5146 24.0147 38.5 26.5 38.5C28.9853 38.5 31 40.5146 31 43Z" fill="#A5D4FE"/>
</svg>
