<svg width="68" height="68" viewBox="0 0 68 68" fill="none" xmlns="http://www.w3.org/2000/svg">
<rect width="68" height="68" rx="34" fill="#19191F"/>
<rect width="68" height="68" rx="34" stroke="white"/>
<path d="M36.027 17.5064C36.4056 17.4692 36.7879 17.5287 37.1373 17.6792L37.3087 17.7627L37.4728 17.8594C37.7917 18.0666 38.0524 18.3515 38.2315 18.6871L38.3151 18.8584L38.3824 19.0372C38.5021 19.3977 38.5293 19.7828 38.4601 20.1563L38.4162 20.3423C38.4108 20.3617 38.4061 20.3817 38.4 20.4009L35.5201 29.4302L35.4952 29.5005L45.9996 29.5005C46.5658 29.4994 47.1211 29.658 47.6007 29.959C48.0814 30.2608 48.466 30.6936 48.7111 31.2057C48.9561 31.7176 49.0516 32.2884 48.985 32.8521C48.9267 33.3453 48.747 33.8152 48.4635 34.2202L48.3346 34.3902L48.2467 34.4897L33.3961 49.79L33.3946 49.7886C33.0666 50.1394 32.6365 50.3792 32.1627 50.4669C31.6609 50.5597 31.1421 50.479 30.692 50.2383C30.242 49.9977 29.8871 49.6101 29.6857 49.1412C29.4845 48.6724 29.4493 48.1492 29.5846 47.6572L29.6007 47.5987L32.4805 38.5695L32.5054 38.5006H21.9996C21.434 38.5013 20.8792 38.3413 20.4 38.0406C19.9196 37.7389 19.5347 37.3072 19.2897 36.7954C19.0446 36.2833 18.9491 35.7114 19.0158 35.1475C19.0824 34.584 19.3086 34.0501 19.6662 33.6094L19.754 33.5098L34.6047 18.211C34.9327 17.8599 35.3641 17.6219 35.838 17.5342L36.027 17.5064ZM22.004 35.5006H32.4996C32.9835 35.4997 33.4605 35.6157 33.8898 35.8389C34.3201 36.0628 34.6906 36.3871 34.9678 36.7852C35.2452 37.1835 35.4214 37.6441 35.482 38.1256C35.5395 38.5825 35.4859 39.0445 35.3356 39.479L35.34 39.4805L33.4401 45.4366L45.9967 32.5006L35.4996 32.5006C35.0164 32.5012 34.5397 32.3851 34.111 32.1622C33.6805 31.9383 33.3102 31.6126 33.0328 31.2144C32.7558 30.8163 32.5794 30.3567 32.5186 29.8755C32.461 29.418 32.5129 28.9542 32.6637 28.5191H32.6608L34.5592 22.5616L22.004 35.5006Z" fill="#A5D4FE"/>
</svg>
