<svg width="40" height="40" viewBox="0 0 40 40" fill="none" xmlns="http://www.w3.org/2000/svg">
<rect x="0.5" y="0.5" width="39" height="39" rx="5.5" fill="white"/>
<rect x="0.5" y="0.5" width="39" height="39" rx="5.5" stroke="#EBEBEA"/>
<path d="M20.0005 14.6404C21.5595 14.6405 23.0835 15.1035 24.379 15.9706C25.5936 16.7835 26.5564 17.9173 27.1617 19.2434L27.2783 19.5116L27.2868 19.5339C27.3845 19.7971 27.3967 20.0834 27.3234 20.3524L27.2868 20.4663C27.284 20.4737 27.2813 20.4812 27.2783 20.4885C26.6838 21.9298 25.6747 23.1624 24.379 24.0296C23.1645 24.8425 21.749 25.2998 20.2923 25.3538L20.0005 25.3597C18.4414 25.3597 16.917 24.8968 15.6213 24.0296C14.4066 23.2165 13.4439 22.0824 12.8386 20.7561L12.7221 20.4885C12.7191 20.4812 12.7164 20.4737 12.7136 20.4663C12.602 20.1655 12.602 19.8347 12.7136 19.5339L12.7221 19.5116C13.3165 18.0704 14.3257 16.8378 15.6213 15.9706C16.917 15.1034 18.4414 14.6404 20.0005 14.6404ZM20.0005 15.9804C18.7068 15.9804 17.4417 16.3646 16.3665 17.0842C15.2983 17.7992 14.4649 18.8135 13.9705 19.9997C14.4649 21.1862 15.2981 22.2008 16.3665 22.916C17.4417 23.6356 18.7068 24.0197 20.0005 24.0197L20.2426 24.0152C21.4513 23.9703 22.6259 23.5905 23.6338 22.916C24.7022 22.2009 25.5348 21.1861 26.0292 19.9997C25.5348 18.8136 24.702 17.7992 23.6338 17.0842C22.5588 16.3647 21.2941 15.9805 20.0005 15.9804Z" fill="#242524"/>
<path d="M21.3403 20C21.3403 19.2599 20.7404 18.66 20.0003 18.66C19.2602 18.66 18.6603 19.2599 18.6603 20C18.6603 20.7401 19.2602 21.34 20.0003 21.34C20.7404 21.34 21.3403 20.7401 21.3403 20ZM22.6803 20C22.6803 21.4801 21.4804 22.68 20.0003 22.68C18.5202 22.68 17.3203 21.4801 17.3203 20C17.3203 18.5199 18.5202 17.32 20.0003 17.32C21.4804 17.32 22.6803 18.5199 22.6803 20Z" fill="#242524"/>
</svg>
